<svg width="76" height="74" viewBox="0 0 76 74" xmlns="http://www.w3.org/2000/svg">
  <path d="M38.443 1.052c-20.18 0-36.54 16.424-36.54 36.688 0 16.206 10.47 29.957 24.99 34.808 1.83.338 2.495-.795 2.495-1.767 0-.87-.03-3.178-.05-6.24-10.165 2.22-12.31-4.917-12.31-4.917-1.66-4.237-4.056-5.365-4.056-5.365-3.318-2.276.25-2.23.25-2.23 3.666.258 5.598 3.78 5.598 3.78 3.26 5.606 8.55 3.987 10.635 3.047.332-2.37 1.275-3.988 2.32-4.906-8.115-.925-16.644-4.07-16.644-18.13 0-4.004 1.424-7.28 3.762-9.845-.377-.93-1.63-4.656.358-9.708 0 0 3.068-.986 10.048 3.76 2.915-.813 6.04-1.22 9.15-1.235 3.1.016 6.227.422 9.147 1.236 6.975-4.747 10.037-3.76 10.037-3.76 1.995 5.05.74 8.778.364 9.707 2.343 2.566 3.758 5.84 3.758 9.846 0 14.093-8.545 17.195-16.684 18.104 1.31 1.133 2.48 3.37 2.48 6.793 0 4.904-.046 8.86-.046 10.064 0 .982.658 2.124 2.513 1.764 14.51-4.86 24.97-18.602 24.97-34.804 0-20.264-16.362-36.688-36.544-36.688z" stroke="#334C4C" stroke-width="3" fill="none" fill-rule="evenodd"/>
</svg>
