<svg width="129" height="145" viewBox="0 0 129 145" xmlns="http://www.w3.org/2000/svg">
<g stroke="#000" stroke-width="2" fill="none" fill-rule="evenodd">
  <path d="M121.83 112.398l-51.385 29.668c-3.713 2.144-8.287 2.144-12 0L7.06 112.398c-3.712-2.144-6-6.104-6-10.392V42.67c0-4.286 2.288-8.247 6-10.39L58.445 2.613c3.713-2.144 8.287-2.144 12 0L121.83 32.28c3.713 2.143 6 6.104 6 10.39v59.336c0 4.288-2.287 8.248-6 10.392z" fill="#FFF" stroke-linecap="round"/>
  <path d="M38.36 40.216c-4.927 0-8.15 3.165-8.15 7.342 0 4.097 3.13 7.33 7.964 7.33h.095c5.015 0 8.138-3.244 8.138-7.342-.096-4.173-3.123-7.33-8.047-7.33zM81.744 59.77c-7.646 0-12.436 4.142-13.322 7.044v-6.636h-14.99c.19 3.523 0 42.284 0 42.284h14.99V79.58c0-1.272-.06-2.543.324-3.456 1.033-2.542 3.248-5.181 7.228-5.181 5.206 0 7.573 3.91 7.573 9.638v21.882H98.68V78.95c0-13.1-7.452-19.181-16.936-19.181zM31.936 102.462h13.348V60.177H31.936z"/>
</g>
</svg>
