<svg width="76" height="59" viewBox="0 0 76 59" xmlns="http://www.w3.org/2000/svg">
  <path d="M71.124 3.035c-2.698 1.618-5.68 2.795-8.865 3.427C59.72 3.715 56.09 2 52.076 2c-7.7 0-13.946 6.33-13.946 14.137 0 1.108.122 2.184.36 3.22C26.9 18.767 16.62 13.143 9.734 4.58c-1.2 2.095-1.887 4.527-1.887 7.115 0 4.903 2.463 9.23 6.206 11.767-2.283-.07-4.44-.712-6.322-1.764v.174c0 6.852 4.81 12.568 11.195 13.862-1.17.332-2.402.497-3.677.497-.897 0-1.774-.084-2.624-.25 1.776 5.614 6.923 9.703 13.03 9.813-4.772 3.794-10.792 6.056-17.325 6.056-1.127 0-2.24-.066-3.33-.196C11.175 55.658 18.51 58 26.384 58 52.05 58 66.08 36.462 66.08 17.78c0-.616-.015-1.23-.037-1.834 2.725-1.993 5.092-4.48 6.957-7.317-2.5 1.124-5.19 1.884-8.01 2.224 2.88-1.747 5.093-4.518 6.134-7.82z" stroke="#000" stroke-width="2" fill="none" fill-rule="evenodd"/>
</svg>
